<svg xmlns="http://www.w3.org/2000/svg" xmlns:xlink="http://www.w3.org/1999/xlink" width="1920" zoomAndPan="magnify" viewBox="0 0 1440 809.999993" height="1080" preserveAspectRatio="xMidYMid meet" version="1.2"><defs><filter x="0%" y="0%" width="100%" filterUnits="objectBoundingBox" id="21f603d2ec" height="100%"><feColorMatrix values="0 0 0 0 1 0 0 0 0 1 0 0 0 0 1 0 0 0 1 0" type="matrix" in="SourceGraphic"/></filter><clipPath id="566c986bd7"><path d="M 0.835938 0.550781 L 241.164062 0.550781 L 241.164062 241.820312 L 0.835938 241.820312 Z M 0.835938 0.550781 "/></clipPath><clipPath id="2f06d96695"><path d="M 8.335938 0.550781 L 233.664062 0.550781 C 235.652344 0.550781 237.5625 1.339844 238.96875 2.746094 C 240.375 4.152344 241.164062 6.0625 241.164062 8.050781 L 241.164062 233.949219 C 241.164062 235.9375 240.375 237.847656 238.96875 239.253906 C 237.5625 240.660156 235.652344 241.449219 233.664062 241.449219 L 8.335938 241.449219 C 6.347656 241.449219 4.4375 240.660156 3.03125 239.253906 C 1.625 237.847656 0.835938 235.9375 0.835938 233.949219 L 0.835938 8.050781 C 0.835938 6.0625 1.625 4.152344 3.03125 2.746094 C 4.4375 1.339844 6.347656 0.550781 8.335938 0.550781 Z M 8.335938 0.550781 "/></clipPath><clipPath id="103a2bc026"><rect x="0" width="242" y="0" height="242"/></clipPath><clipPath id="df204382ba"><path d="M 651 289.800781 L 792 289.800781 L 792 520 L 651 520 Z M 651 289.800781 "/></clipPath></defs><g id="d0698519c9"><g mask="url(#bf23b427b5)" transform="matrix(1,0,0,1,599,284)"><g clip-path="url(#103a2bc026)"><g clip-rule="nonzero" clip-path="url(#566c986bd7)"><g clip-rule="nonzero" clip-path="url(#2f06d96695)"><path style=" stroke:none;fill-rule:nonzero;fill:#222222;fill-opacity:1;" d="M 0.835938 0.550781 L 241.164062 0.550781 L 241.164062 241.820312 L 0.835938 241.820312 Z M 0.835938 0.550781 "/></g></g></g><mask id="bf23b427b5"><g filter="url(#21f603d2ec)"><rect x="0" width="1440" y="0" height="809.999993" style="fill:#000000;fill-opacity:0.36;stroke:none;"/></g></mask></g><path style=" stroke:none;fill-rule:nonzero;fill:#000000;fill-opacity:1;" d="M 721.257812 516.113281 C 729.464844 515.941406 749.648438 515.023438 758.203125 510.175781 C 759.875 509.195312 760.53125 505.074219 760.492188 500.957031 C 751.554688 503.628906 739.988281 504.863281 731.132812 505.433594 C 728.511719 511.558594 724.277344 514.628906 721.257812 516.113281 Z M 721.257812 516.113281 "/><path style=" stroke:none;fill-rule:nonzero;fill:#000000;fill-opacity:1;" d="M 731.945312 461.855469 C 736.746094 482.777344 723.8125 495.371094 716 500.871094 C 725.042969 501.027344 766.613281 499.429688 766.613281 490.40625 C 766.613281 486.070312 762.339844 479.171875 757.800781 475.015625 C 754.855469 472.320312 751.816406 469.539062 751.296875 458.472656 C 746.328125 460.042969 739.585938 461.207031 731.945312 461.855469 Z M 731.945312 461.855469 "/><path style=" stroke:none;fill-rule:nonzero;fill:#000000;fill-opacity:1;" d="M 734.679688 444.96875 C 735.0625 445.75 735.386719 446.652344 735.535156 447.640625 C 743.230469 446.929688 750.316406 445.785156 756.070312 444.296875 C 754.722656 443.46875 753.078125 442.542969 751.414062 441.667969 C 748.617188 442.515625 742.136719 444.105469 734.679688 444.96875 Z M 734.679688 444.96875 "/><path style=" stroke:none;fill-rule:nonzero;fill:#000000;fill-opacity:1;" d="M 755.03125 449.726562 C 749.0625 451.109375 742.039062 452.140625 734.484375 452.769531 C 733.597656 454.359375 732.332031 455.792969 731.269531 456.84375 C 740.128906 456.132812 747.546875 454.722656 752.269531 452.777344 C 753.210938 451.769531 754.160156 450.722656 755.03125 449.726562 Z M 755.03125 449.726562 "/><path style=" stroke:none;fill-rule:nonzero;fill:#000000;fill-opacity:1;" d="M 674.871094 500.957031 C 674.789062 509.816406 676.449219 510.648438 683.300781 512.582031 C 681.570312 509.164062 680.867188 504.625 680.617188 502.417969 C 678.621094 501.988281 676.691406 501.503906 674.871094 500.957031 Z M 674.871094 500.957031 "/><path style=" stroke:none;fill-rule:nonzero;fill:#000000;fill-opacity:1;" d="M 675.925781 476.597656 C 672.359375 480.441406 668.746094 486.417969 668.746094 490.40625 C 668.746094 494.066406 674.457031 495.664062 678 496.609375 C 676.164062 494.828125 674.027344 491.941406 674.917969 488.691406 C 678.421875 475.9375 687.132812 480.925781 688.691406 459.707031 C 687.019531 459.328125 685.46875 458.917969 684.0625 458.472656 C 683.4375 471.78125 679.140625 473.132812 675.925781 476.597656 Z M 675.925781 476.597656 "/><path style=" stroke:none;fill-rule:nonzero;fill:#000000;fill-opacity:1;" d="M 680.332031 449.734375 C 681.203125 450.730469 682.148438 451.773438 683.09375 452.777344 C 683.769531 453.054688 684.503906 453.324219 685.285156 453.582031 L 683.957031 450.519531 C 682.71875 450.273438 681.507812 450.011719 680.332031 449.734375 Z M 680.332031 449.734375 "/><path style=" stroke:none;fill-rule:nonzero;fill:#000000;fill-opacity:1;" d="M 679.289062 444.296875 C 681.265625 444.816406 683.355469 445.292969 685.546875 445.71875 C 686.214844 444.679688 686.925781 443.5625 687.523438 442.613281 C 685.898438 442.234375 684.699219 441.898438 683.945312 441.667969 C 682.28125 442.539062 680.636719 443.46875 679.289062 444.296875 Z M 679.289062 444.296875 "/><path style=" stroke:none;fill-rule:nonzero;fill:#000000;fill-opacity:1;" d="M 713.324219 386.582031 C 703.242188 394.546875 687.703125 406.902344 683.765625 412.125 C 679.488281 417.796875 683.402344 433.058594 684.945312 436.703125 C 687.1875 437.242188 689.597656 437.726562 692.132812 438.148438 C 689.171875 410.773438 701.875 398.589844 713.324219 386.582031 Z M 713.324219 386.582031 "/><path style=" stroke:none;fill-rule:nonzero;fill:#000000;fill-opacity:1;" d="M 708.097656 424.105469 C 708.097656 424.105469 711.011719 412.078125 723.296875 402.746094 C 742.34375 388.269531 742.632812 368.070312 729.714844 356.5 C 729.714844 356.5 733.777344 364.164062 732.726562 376.214844 C 731.875 386.046875 721.515625 396.347656 713.464844 404.210938 C 705.414062 412.078125 708.097656 424.105469 708.097656 424.105469 Z M 708.097656 424.105469 "/><path style=" stroke:none;fill-rule:nonzero;fill:#000000;fill-opacity:1;" d="M 746.878906 330.511719 C 762.8125 365.390625 745.421875 423.855469 718.488281 437.386719 C 736.871094 422.765625 744.070312 403.78125 747.855469 381.605469 C 741.160156 409.621094 730.074219 427.640625 706.214844 439.773438 C 719.636719 440.710938 735.296875 440.195312 748.355469 436.964844 C 748.902344 430.222656 752.46875 422.707031 755.550781 418.878906 C 755.746094 402.328125 760.644531 393.769531 764.96875 386.207031 C 767.625 381.566406 770.054688 377.320312 771.195312 371.613281 C 769.941406 337.664062 746.878906 330.511719 746.878906 330.511719 Z M 746.878906 330.511719 "/><path style=" stroke:none;fill-rule:nonzero;fill:#000000;fill-opacity:1;" d="M 692.917969 438.277344 C 693.960938 438.445312 695.019531 438.601562 696.097656 438.746094 C 693.992188 418.238281 696.234375 412.742188 701.136719 403.757812 C 695.472656 412.28125 692.699219 417.742188 692.917969 438.277344 Z M 692.917969 438.277344 "/><path style=" stroke:none;fill-rule:nonzero;fill:#000000;fill-opacity:1;" d="M 737.953125 329.296875 C 737.929688 329.71875 737.902344 330.121094 737.839844 330.488281 C 737.816406 330.675781 737.796875 330.851562 737.765625 331.023438 C 737.734375 331.1875 737.699219 331.347656 737.667969 331.496094 C 737.609375 331.796875 737.550781 332.058594 737.484375 332.265625 C 737.363281 332.691406 737.292969 332.933594 737.292969 332.933594 C 737.292969 332.933594 737.414062 332.710938 737.621094 332.316406 C 737.730469 332.125 737.84375 331.878906 737.964844 331.589844 C 738.027344 331.449219 738.09375 331.296875 738.164062 331.132812 C 738.226562 330.972656 738.285156 330.796875 738.351562 330.613281 C 738.492188 330.253906 738.605469 329.851562 738.722656 329.417969 C 739.113281 328.101562 739.691406 324.601562 738.546875 320.742188 C 737.574219 320.371094 736.667969 320.050781 735.855469 319.777344 C 736.855469 323.457031 738.242188 325.808594 737.953125 329.296875 Z M 737.953125 329.296875 "/><path style=" stroke:none;fill-rule:nonzero;fill:#000000;fill-opacity:1;" d="M 760.589844 418.320312 C 762.476562 419.269531 765.742188 421.042969 767.621094 422.066406 C 769.363281 404.394531 786.0625 384.945312 785.476562 364.28125 C 785.015625 379.289062 776.800781 389.441406 771.128906 403 C 774.015625 385.773438 778.066406 380.078125 776.871094 366.375 C 776.277344 380.371094 769.558594 386.738281 765.007812 396.9375 C 762.613281 402.296875 760.773438 408.800781 760.589844 418.320312 Z M 760.589844 418.320312 "/><path style=" stroke:none;fill-rule:nonzero;fill:#000000;fill-opacity:1;" d="M 695.148438 374.046875 C 697.152344 373.734375 697.210938 373.777344 697.648438 373.457031 C 695.957031 369.867188 695.03125 366.628906 694.378906 363.179688 C 694.214844 366.570312 694.3125 369.890625 695.148438 374.046875 Z M 695.148438 374.046875 "/><path style=" stroke:none;fill-rule:nonzero;fill:#000000;fill-opacity:1;" d="M 713.8125 318.714844 L 709.710938 314.820312 L 712.050781 320.21875 C 712.554688 319.773438 713.152344 319.261719 713.8125 318.714844 Z M 713.8125 318.714844 "/><path style=" stroke:none;fill-rule:nonzero;fill:#000000;fill-opacity:1;" d="M 733.925781 311.839844 C 734.171875 312.648438 734.382812 313.402344 734.542969 314.105469 C 735.003906 314.230469 735.570312 314.394531 736.222656 314.601562 L 734.125 307.386719 Z M 733.925781 311.839844 "/><path style=" stroke:none;fill-rule:nonzero;fill:#000000;fill-opacity:1;" d="M 776.171875 338.109375 C 774.507812 338.757812 772.503906 339.433594 770.5625 339.980469 C 770.972656 340.675781 771.363281 341.378906 771.730469 342.089844 C 773.324219 340.792969 774.929688 339.339844 776.171875 338.109375 Z M 776.171875 338.109375 "/><path style=" stroke:none;fill-rule:nonzero;fill:#000000;fill-opacity:1;" d="M 772.953125 344.640625 C 773.175781 345.144531 773.390625 345.65625 773.59375 346.171875 C 774.734375 345.300781 775.707031 344.339844 775.707031 344.339844 C 774.753906 344.507812 773.355469 344.640625 772.953125 344.640625 Z M 772.953125 344.640625 "/><path style=" stroke:none;fill-rule:nonzero;fill:#000000;fill-opacity:1;" d="M 761.832031 323.03125 L 766.285156 319.964844 C 765.761719 319.515625 765.238281 319.078125 764.714844 318.65625 Z M 761.832031 323.03125 "/><path style=" stroke:none;fill-rule:nonzero;fill:#000000;fill-opacity:1;" d="M 785.898438 350.394531 L 781.28125 353.539062 L 786.414062 352.527344 C 786.257812 351.8125 786.085938 351.101562 785.898438 350.394531 Z M 785.898438 350.394531 "/><path style=" stroke:none;fill-rule:nonzero;fill:#000000;fill-opacity:1;" d="M 746.863281 318.902344 C 747.554688 319.246094 748.257812 319.609375 748.96875 319.996094 L 750.371094 313.816406 Z M 746.863281 318.902344 "/><path style=" stroke:none;fill-rule:nonzero;fill:#000000;fill-opacity:1;" d="M 751.515625 321.445312 L 752.050781 318.289062 L 750.042969 320.589844 C 750.53125 320.863281 751.019531 321.148438 751.515625 321.445312 Z M 751.515625 321.445312 "/><path style=" stroke:none;fill-rule:nonzero;fill:#000000;fill-opacity:1;" d="M 723.554688 378.71875 C 723.046875 379.132812 722.476562 379.492188 721.847656 379.773438 C 721.378906 380.171875 720.746094 380.6875 719.988281 381.300781 L 720.113281 381.535156 C 721.410156 380.699219 722.457031 379.921875 723.554688 378.71875 Z M 723.554688 378.71875 "/><path style=" stroke:none;fill-rule:nonzero;fill:#000000;fill-opacity:1;" d="M 725.804688 369.972656 C 726.109375 372.121094 726.261719 374.351562 725.378906 376.339844 C 730.019531 368.8125 727.859375 360.21875 721.242188 355.472656 C 725.824219 359.625 727.148438 365.15625 725.804688 369.972656 Z M 725.804688 369.972656 "/><path style=" stroke:none;fill-rule:nonzero;fill:#000000;fill-opacity:1;" d="M 673.15625 356.894531 L 702.195312 344.601562 C 700.554688 344.328125 698.839844 343.683594 696.761719 343.507812 Z M 673.15625 356.894531 "/><g clip-rule="nonzero" clip-path="url(#df204382ba)"><path style=" stroke:none;fill-rule:nonzero;fill:#000000;fill-opacity:1;" d="M 728.707031 301.71875 C 728.570312 301.421875 727.832031 299.894531 727.585938 299.675781 C 724.722656 295.136719 719.480469 290.378906 719.210938 290.136719 C 718.976562 289.921875 718.675781 289.8125 718.371094 289.8125 C 718.183594 289.8125 717.996094 289.851562 717.820312 289.9375 C 716.78125 290.441406 717.0625 290.316406 717.894531 303.269531 C 717.078125 303.566406 716.289062 303.898438 715.515625 304.25 C 713.753906 302.128906 709.042969 297.582031 707.464844 299.417969 C 706.566406 300.464844 708.78125 304.363281 709.164062 307.738281 C 709.140625 307.792969 709.125 307.851562 709.109375 307.910156 C 699.285156 314.644531 701.152344 313.164062 710.113281 323.800781 L 708.042969 325.960938 C 699.570312 326.1875 696.621094 327.730469 692.503906 336.835938 L 665.351562 353.910156 C 660.746094 353.140625 656.980469 355.410156 655.601562 359.777344 C 643.089844 377.121094 664.132812 385.539062 664.621094 385.539062 C 665.917969 385.539062 667.222656 384.792969 668.023438 384.230469 C 674.222656 387.675781 675.832031 387.660156 683.355469 379.699219 L 708.023438 375.867188 C 710.582031 377.832031 713.128906 379.132812 716.359375 379.367188 C 703.703125 389.449219 682.746094 405.527344 679.765625 411.464844 C 675.867188 419.246094 679.625 434.066406 681.671875 438.535156 C 672.828125 443.175781 672.824219 444.667969 672.824219 445.324219 C 672.824219 446.648438 675.359375 450.015625 680.367188 455.332031 C 680.300781 467.328125 677.847656 469.578125 675.011719 472.171875 C 674.410156 472.722656 673.785156 473.292969 673.160156 473.972656 C 669.085938 478.359375 664.972656 485.125 664.972656 490.347656 C 664.972656 494.976562 669.246094 497.417969 671.203125 498.292969 C 670.945312 501.460938 670.632812 510.65625 675.277344 513.390625 C 686.222656 519.59375 712.472656 519.871094 717.027344 519.871094 C 717.367188 519.871094 717.585938 519.867188 717.667969 519.867188 C 718.90625 519.878906 748.324219 520.054688 760.101562 513.382812 C 764.730469 510.65625 764.414062 501.460938 764.15625 498.292969 C 766.113281 497.417969 770.386719 494.976562 770.386719 490.347656 C 770.386719 485.125 766.273438 478.359375 762.199219 473.972656 C 761.574219 473.292969 760.949219 472.722656 760.347656 472.171875 C 757.511719 469.578125 755.058594 467.328125 754.992188 455.332031 C 760 450.015625 762.535156 446.648438 762.535156 445.324219 C 762.535156 444.636719 762.535156 443.015625 752.21875 437.777344 C 753.046875 434.785156 751.65625 429.988281 758.347656 421.410156 C 781.433594 432.917969 760.851562 430.792969 784.851562 390.347656 C 807.214844 352.660156 771.394531 300.421875 728.707031 301.71875 Z M 713.199219 305.40625 C 712.609375 305.722656 712.039062 306.050781 711.488281 306.382812 C 711.28125 305.378906 710.839844 303.839844 710.542969 302.859375 C 711.503906 303.628906 712.386719 304.484375 713.199219 305.40625 Z M 705.28125 314.160156 C 707.109375 312.480469 711.804688 308.507812 717.589844 306.097656 C 718.320312 309.425781 718.902344 312.816406 719.117188 316.226562 C 716.65625 317.949219 714.085938 320.050781 711.914062 322.03125 Z M 758.84375 511.203125 C 747.671875 517.53125 717.992188 517.351562 717.667969 517.351562 C 717.363281 517.351562 687.691406 517.535156 676.535156 511.210938 C 673.714844 509.550781 673.46875 502.90625 673.664062 499.203125 C 689.734375 504.527344 716.152344 504.605469 717.652344 504.605469 C 717.671875 504.605469 717.683594 504.605469 717.707031 504.605469 C 719.210938 504.605469 745.628906 504.527344 761.695312 499.203125 C 761.894531 502.902344 761.65625 509.546875 758.84375 511.203125 Z M 758.648438 474.027344 C 759.214844 474.546875 759.800781 475.082031 760.355469 475.683594 C 763.976562 479.582031 767.871094 485.832031 767.871094 490.347656 C 767.871094 494.398438 762.472656 496.265625 762.417969 496.28125 L 761.449219 496.605469 L 761.453125 496.625 C 745.753906 502.035156 718.066406 502.089844 717.679688 502.089844 C 717.679688 502.089844 717.679688 502.089844 717.675781 502.089844 C 717.277344 502.089844 689.605469 502.035156 673.90625 496.625 L 673.910156 496.605469 L 672.941406 496.28125 C 672.886719 496.265625 667.488281 494.425781 667.488281 490.347656 C 667.488281 485.832031 671.382812 479.582031 675.003906 475.683594 C 675.558594 475.082031 676.144531 474.546875 676.710938 474.027344 C 679.734375 471.261719 682.597656 468.628906 682.863281 456.675781 C 690.984375 459.640625 704.332031 461.125 717.679688 461.125 C 731.027344 461.125 744.375 459.640625 752.496094 456.675781 C 752.761719 468.628906 755.625 471.261719 758.648438 474.027344 Z M 753 453.777344 C 737.941406 460.164062 697.421875 460.164062 682.359375 453.777344 C 680.363281 451.660156 678.242188 449.242188 676.851562 447.476562 C 688.324219 450.71875 702.839844 452.164062 717.097656 452.164062 C 732.664062 452.164062 747.90625 450.449219 758.5 447.492188 C 757.109375 449.257812 754.988281 451.664062 753 453.777344 Z M 759.066406 444.707031 C 739.128906 450.703125 700.316406 451.925781 676.300781 444.703125 C 677.871094 443.539062 680.925781 441.753906 683.773438 440.285156 C 684.136719 440.390625 684.5625 440.503906 685.046875 440.625 C 689.0625 441.761719 699.929688 444.277344 717.679688 444.277344 C 737.742188 444.277344 749.015625 441.0625 751.535156 440.253906 C 754.398438 441.734375 757.488281 443.535156 759.066406 444.707031 Z M 756.804688 419.347656 C 755.382812 420.921875 749.933594 429.085938 749.554688 437.960938 C 729.699219 443.109375 702.441406 442.042969 685.453125 438.113281 C 684.609375 437.871094 684.171875 437.71875 684.148438 437.710938 L 684.003906 437.660156 C 682.5 434.648438 677.859375 417.871094 682.761719 411.367188 C 688.375 403.925781 716.300781 382.886719 721.179688 378.6875 C 727.441406 376.058594 724.4375 365.652344 720.640625 360.394531 C 725.898438 375.6875 714.59375 375.78125 708.488281 372.367188 C 707.925781 371.917969 707.378906 371.453125 706.847656 370.980469 C 702.886719 367.429688 699.484375 364.351562 696.742188 358.839844 C 696.742188 358.839844 697.066406 365.417969 699.308594 372.414062 L 699.308594 372.410156 C 700.242188 375.28125 695.289062 375.300781 682.90625 377.222656 C 684.953125 375.054688 687.394531 373.414062 690.003906 371.964844 C 676.609375 377.378906 677.382812 387.726562 669.714844 380.308594 C 670.742188 378.898438 671.34375 377.824219 672.011719 376.402344 C 669.382812 379.320312 666.234375 381.363281 663.339844 382.398438 C 652.109375 375.332031 652.40625 369.925781 656.253906 363.382812 C 656.5 364.222656 657.011719 365.109375 657.882812 365.941406 C 656.070312 359.015625 662.179688 354.007812 668.34375 357.703125 C 668.128906 357.285156 667.835938 356.652344 666.945312 355.878906 L 693.949219 338.894531 C 693.589844 339.914062 693.199219 340.5 692.488281 341.269531 C 697.300781 338.636719 695.746094 331.378906 702.796875 329.695312 C 703.125 329.546875 703.46875 329.433594 703.824219 329.359375 C 704.160156 329.289062 704.519531 329.253906 704.886719 329.253906 C 705.035156 329.253906 705.179688 329.265625 705.324219 329.277344 C 705.710938 329.25 706.097656 329.234375 706.492188 329.234375 C 707.324219 329.234375 708.164062 329.285156 708.984375 329.347656 C 710.054688 329.441406 711.125 329.488281 712.148438 329.488281 C 713.015625 329.488281 713.84375 329.457031 714.613281 329.394531 C 716.296875 329.261719 717.660156 328.75 718.53125 328.328125 C 718.746094 328.214844 718.933594 328.105469 719.09375 328.003906 C 719.253906 327.902344 719.386719 327.816406 719.492188 327.738281 C 719.699219 327.585938 719.808594 327.507812 719.808594 327.507812 C 719.808594 327.507812 719.679688 327.546875 719.433594 327.625 C 719.316406 327.664062 719.164062 327.703125 718.984375 327.742188 C 718.808594 327.789062 718.601562 327.828125 718.371094 327.863281 C 717.839844 327.992188 717.164062 328.039062 716.378906 328.039062 C 715.832031 328.039062 715.234375 328.015625 714.59375 327.976562 C 713.199219 327.902344 711.667969 327.5625 710.21875 327.324219 C 712.132812 325.328125 713.964844 323.152344 719.222656 319.445312 C 719.226562 320.117188 719.21875 320.304688 719.203125 321.265625 C 720.480469 315.117188 720.613281 311.167969 720.417969 304.484375 C 720.515625 304.140625 720.503906 304.671875 719.832031 294.234375 C 721.71875 296.148438 724.304688 298.992188 725.789062 301.542969 C 735.492188 323.050781 730.371094 319.4375 725.402344 327.625 C 725.046875 328.210938 724.738281 328.796875 724.476562 329.378906 C 724.050781 330.105469 723.722656 330.921875 723.539062 331.894531 C 723.539062 331.894531 722.980469 333.503906 723.539062 339.203125 C 723.542969 339.210938 723.542969 339.214844 723.546875 339.214844 C 723.683594 339.214844 725.972656 334.070312 730.386719 331.402344 C 736.988281 327.417969 736.273438 325.492188 734.007812 317.882812 C 765.023438 326.910156 784.128906 355.253906 766.0625 386.832031 C 766.039062 386.875 766.011719 386.917969 765.988281 386.960938 C 761.710938 394.433594 756.914062 402.929688 756.804688 419.347656 Z M 782.6875 389.0625 C 775.078125 401.886719 769.339844 412.347656 768.730469 424.105469 C 766.335938 422.792969 761.292969 420.039062 759.320312 419.097656 C 759.4375 406.949219 762.144531 399.53125 765.363281 393.292969 C 766.296875 391.488281 767.273438 389.777344 768.246094 388.082031 C 787.347656 354.695312 766.105469 323.496094 733.480469 315.121094 C 732.949219 312.484375 731.757812 309.023438 729.714844 304.226562 C 771.25 304.324219 803.535156 353.933594 782.6875 389.0625 Z M 782.6875 389.0625 "/></g><path style=" stroke:none;fill-rule:nonzero;fill:#000000;fill-opacity:1;" d="M 714.714844 333.878906 C 714.144531 334.1875 713.277344 334.636719 712.449219 335.394531 C 708.867188 338.660156 707.101562 341.289062 703.351562 341.292969 C 699.078125 341.304688 698.082031 341.140625 696.066406 342.246094 C 698.765625 342.195312 701.0625 343.304688 703.277344 343.472656 C 710.394531 344.023438 712.375 337.074219 715.015625 334.265625 C 715.210938 334.015625 715.378906 333.824219 715.496094 333.699219 C 715.613281 333.570312 715.679688 333.503906 715.679688 333.503906 C 715.679688 333.503906 715.589844 333.53125 715.425781 333.589844 C 715.257812 333.648438 715.019531 333.742188 714.714844 333.878906 Z M 714.714844 333.878906 "/><path style=" stroke:none;fill-rule:nonzero;fill:#000000;fill-opacity:1;" d="M 660.65625 367.257812 C 662.964844 362.863281 669.460938 360.402344 669.460938 360.402344 C 657.136719 353.230469 660.371094 368.863281 660.65625 367.257812 Z M 660.65625 367.257812 "/><path style=" stroke:none;fill-rule:nonzero;fill:#000000;fill-opacity:1;" d="M 711.011719 331.84375 C 705.152344 330.382812 701.460938 327.824219 698.363281 339.246094 C 708.011719 339.179688 711.007812 334.851562 711.011719 331.84375 Z M 711.011719 331.84375 "/><path style=" stroke:none;fill-rule:nonzero;fill:#000000;fill-opacity:1;" d="M 724.671875 323.644531 C 729.808594 316.441406 727.675781 308.699219 722.492188 301.484375 C 722.492188 301.484375 725.289062 315.816406 722.492188 322.386719 Z M 724.671875 323.644531 "/></g></svg>